<svg width="48" height="48" viewBox="0 0 48 48" fill="none" xmlns="http://www.w3.org/2000/svg">
<g clip-path="url(#clip0)">
<path d="M46.4986 20.9987C45.6706 20.9987 44.9986 21.6707 44.9986 22.4986V39.4836L32.9994 44.2833V28.4982C32.9994 27.6703 32.3274 26.9983 31.4995 26.9983C30.6715 26.9983 29.9996 27.6703 29.9996 28.4982V44.2803L18.0003 39.4806V15.716L24.9509 18.4969C25.7099 18.8028 26.5918 18.4309 26.9008 17.6599C27.2098 16.892 26.8348 16.019 26.0638 15.71L17.0854 12.1163C17.0854 12.1163 17.0854 12.1163 17.0824 12.1163L17.0584 12.1073C16.7014 11.9633 16.3024 11.9633 15.9455 12.1073L15.9185 12.1163C15.9185 12.1163 15.9185 12.1163 15.9155 12.1163L0.943406 18.1069C0.376441 18.3349 0.00146484 18.8838 0.00146484 19.4988V46.4971C0.00146484 46.9951 0.250449 47.4601 0.661424 47.739C0.913408 47.91 1.20439 47.997 1.50137 47.997C1.69036 47.997 1.87935 47.961 2.05934 47.889L16.5004 42.1144L30.9145 47.88C30.9145 47.88 30.9145 47.88 30.9175 47.88L30.9445 47.892C31.3015 48.036 31.7005 48.036 32.0575 47.892L32.0845 47.88C32.0845 47.88 32.0845 47.88 32.0875 47.88L47.0595 41.8924C47.6235 41.6614 47.9985 41.1125 47.9985 40.4975V22.4986C47.9985 21.6707 47.3265 20.9987 46.4986 20.9987ZM15.0005 39.4806L3.00128 44.2803V20.5127L15.0005 15.713V39.4806Z" fill="#ED1C24"/>
<path d="M37.4992 5.99963C35.0184 5.99963 32.9995 8.01851 32.9995 10.4994C32.9995 12.9802 35.0184 14.9991 37.4992 14.9991C39.9801 14.9991 41.999 12.9802 41.999 10.4994C41.999 8.01851 39.9801 5.99963 37.4992 5.99963ZM37.4992 11.9993C36.6713 11.9993 35.9993 11.3273 35.9993 10.4994C35.9993 9.6714 36.6713 8.99945 37.4992 8.99945C38.3272 8.99945 38.9991 9.6714 38.9991 10.4994C38.9991 11.3273 38.3272 11.9993 37.4992 11.9993Z" fill="#4FC0ED"/>
<path d="M37.4991 0C31.7095 0 26.9998 4.70971 26.9998 10.4993C26.9998 15.887 35.4232 25.4294 36.3832 26.5003C36.6682 26.8153 37.0731 26.9983 37.4991 26.9983C37.9251 26.9983 38.3301 26.8153 38.615 26.5003C39.575 25.4294 47.9985 15.887 47.9985 10.4993C47.9985 4.70971 43.2887 0 37.4991 0ZM37.4991 23.2096C34.2233 19.3248 29.9996 13.3612 29.9996 10.4993C29.9996 6.3656 33.3654 2.99981 37.4991 2.99981C41.6328 2.99981 44.9986 6.3656 44.9986 10.4993C44.9986 13.3582 40.7749 19.3248 37.4991 23.2096Z" fill="#3ABAED"/>
</g>
<defs>
<clipPath id="clip0">
<rect width="48" height="48" fill="white"/>
</clipPath>
</defs>
</svg>